<svg width="328" height="71" viewBox="0 0 328 71" fill="none" xmlns="http://www.w3.org/2000/svg">
<g filter="url(#filter0_d)">
<rect x="4" width="320" height="63" rx="10" fill="#BEBEBE"/>
</g>
<path d="M81.7184 40H84.3784V33.82C84.3784 32.42 84.1384 30.36 83.9984 28.96H84.0784L85.2584 32.44L87.5584 38.66H89.2584L91.5384 32.44L92.7384 28.96H92.8384C92.6784 30.36 92.4584 32.42 92.4584 33.82V40H95.1584V25.18H91.8784L89.4184 32.12C89.0984 33.04 88.8384 34.02 88.5184 34.96H88.4184C88.1184 34.02 87.8384 33.04 87.5184 32.12L84.9984 25.18H81.7184V40ZM104.669 40.28C108.589 40.28 111.289 37.34 111.289 32.54C111.289 27.74 108.589 24.92 104.669 24.92C100.749 24.92 98.0488 27.72 98.0488 32.54C98.0488 37.34 100.749 40.28 104.669 40.28ZM104.669 37.72C102.469 37.72 101.069 35.7 101.069 32.54C101.069 29.36 102.469 27.46 104.669 27.46C106.869 27.46 108.269 29.36 108.269 32.54C108.269 35.7 106.869 37.72 104.669 37.72ZM117.165 32.28C117.605 30.74 118.045 29.06 118.425 27.44H118.525C118.945 29.04 119.345 30.74 119.805 32.28L120.245 33.9H116.725L117.165 32.28ZM112.045 40H115.045L116.085 36.2H120.885L121.925 40H125.025L120.265 25.18H116.785L112.045 40ZM126.758 40H129.418V33.82C129.418 32.42 129.178 30.36 129.038 28.96H129.118L130.298 32.44L132.598 38.66H134.298L136.578 32.44L137.778 28.96H137.878C137.718 30.36 137.498 32.42 137.498 33.82V40H140.198V25.18H136.918L134.458 32.12C134.138 33.04 133.878 34.02 133.558 34.96H133.458C133.158 34.02 132.878 33.04 132.558 32.12L130.038 25.18H126.758V40ZM149.708 40.28C153.628 40.28 156.328 37.34 156.328 32.54C156.328 27.74 153.628 24.92 149.708 24.92C145.788 24.92 143.088 27.72 143.088 32.54C143.088 37.34 145.788 40.28 149.708 40.28ZM149.708 37.72C147.508 37.72 146.108 35.7 146.108 32.54C146.108 29.36 147.508 27.46 149.708 27.46C151.908 27.46 153.308 29.36 153.308 32.54C153.308 35.7 151.908 37.72 149.708 37.72ZM162.204 32.28C162.644 30.74 163.084 29.06 163.464 27.44H163.564C163.984 29.04 164.384 30.74 164.844 32.28L165.284 33.9H161.764L162.204 32.28ZM157.084 40H160.084L161.124 36.2H165.924L166.964 40H170.064L165.304 25.18H161.824L157.084 40ZM182.508 24.72H179.868V27.4C179.868 30.98 178.348 34.54 175.128 35.92L176.708 38.1C178.908 37.06 180.408 35.08 181.228 32.62C182.048 34.88 183.468 36.7 185.588 37.66L187.088 35.52C183.968 34.18 182.508 30.82 182.508 27.4V24.72ZM187.988 23.28V41.76H190.628V23.28H187.988ZM204.766 31.72C201.866 30.78 200.606 28.6 200.546 26.48H204.146V24.38H194.186V26.48H197.846C197.786 28.76 196.486 31.06 193.486 32.04L194.866 34.1C196.986 33.4 198.426 31.98 199.246 30.2C200.046 31.82 201.426 33.12 203.426 33.76L204.766 31.72ZM195.966 37.32H205.626V41.74H208.266V35.22H195.966V37.32ZM210.706 27.74H208.266V23.3H205.626V34.4H208.266V29.92H210.706V27.74ZM217.485 35.8C216.245 35.8 215.325 34.96 215.325 33.56C215.325 32.16 216.245 31.3 217.485 31.3C218.725 31.3 219.625 32.16 219.625 33.54C219.625 34.96 218.725 35.8 217.485 35.8ZM217.485 29.16C214.805 29.16 212.805 30.98 212.805 33.54C212.805 36.14 214.805 37.96 217.485 37.96C220.145 37.96 222.125 36.14 222.125 33.54C222.125 30.98 220.145 29.16 217.485 29.16ZM218.785 23.62H216.145V26.02H212.065V28.12H222.785V26.02H218.785V23.62ZM229.265 30.5H226.625V23.3H223.985V41.72H226.625V32.68H229.265V30.5ZM231.583 25.2V27.3H237.723C237.343 31.38 235.303 34.26 230.603 36.52L231.983 38.6C238.523 35.44 240.423 30.84 240.423 25.2H231.583ZM243.243 23.28V41.7H245.903V23.28H243.243Z" fill="white"/>
<defs>
<filter id="filter0_d" x="0" y="0" width="328" height="71" filterUnits="userSpaceOnUse" color-interpolation-filters="sRGB">
<feFlood flood-opacity="0" result="BackgroundImageFix"/>
<feColorMatrix in="SourceAlpha" type="matrix" values="0 0 0 0 0 0 0 0 0 0 0 0 0 0 0 0 0 0 127 0" result="hardAlpha"/>
<feOffset dy="4"/>
<feGaussianBlur stdDeviation="2"/>
<feComposite in2="hardAlpha" operator="out"/>
<feColorMatrix type="matrix" values="0 0 0 0 0 0 0 0 0 0 0 0 0 0 0 0 0 0 0.25 0"/>
<feBlend mode="normal" in2="BackgroundImageFix" result="effect1_dropShadow"/>
<feBlend mode="normal" in="SourceGraphic" in2="effect1_dropShadow" result="shape"/>
</filter>
</defs>
</svg>
