<svg width="38" height="38" viewBox="0 0 38 38" fill="none" xmlns="http://www.w3.org/2000/svg">
<g filter="url(#filter0_d)">
<circle cx="18" cy="18" r="18" fill="white"/>
</g>
<path d="M9.99954 18L8.20954 18C7.75954 18 7.53954 18.54 7.85954 18.85L10.6495 21.65C10.8495 21.85 11.1595 21.85 11.3595 21.65L14.1495 18.86C14.4595 18.54 14.2395 18 13.7895 18L11.9995 18C11.9995 14.69 14.6895 12 17.9995 12C18.7895 12 19.5595 12.15 20.2495 12.44C20.6095 12.59 21.0195 12.48 21.2895 12.21C21.7995 11.7 21.6195 10.84 20.9495 10.57C20.0395 10.2 19.0395 10 17.9995 10C13.5795 10 9.99954 13.58 9.99954 18ZM23.9995 18C23.9995 21.31 21.3095 24 17.9995 24C17.2095 24 16.4395 23.85 15.7495 23.56C15.3895 23.41 14.9795 23.52 14.7095 23.79C14.1995 24.3 14.3795 25.16 15.0495 25.43C15.9595 25.8 16.9595 26 17.9995 26C22.4195 26 25.9995 22.42 25.9995 18L27.7895 18C28.2395 18 28.4595 17.46 28.1395 17.15L25.3495 14.36C25.1495 14.16 24.8395 14.16 24.6395 14.36L21.8495 17.15C21.5395 17.46 21.7595 18 22.2095 18L23.9995 18Z" fill="#FFB54E"/>
<defs>
<filter id="filter0_d" x="0" y="0" width="38" height="38" filterUnits="userSpaceOnUse" color-interpolation-filters="sRGB">
<feFlood flood-opacity="0" result="BackgroundImageFix"/>
<feColorMatrix in="SourceAlpha" type="matrix" values="0 0 0 0 0 0 0 0 0 0 0 0 0 0 0 0 0 0 127 0" result="hardAlpha"/>
<feOffset dx="1" dy="1"/>
<feGaussianBlur stdDeviation="0.5"/>
<feComposite in2="hardAlpha" operator="out"/>
<feColorMatrix type="matrix" values="0 0 0 0 0.427451 0 0 0 0 0.427451 0 0 0 0 0.427451 0 0 0 0.25 0"/>
<feBlend mode="normal" in2="BackgroundImageFix" result="effect1_dropShadow"/>
<feBlend mode="normal" in="SourceGraphic" in2="effect1_dropShadow" result="shape"/>
</filter>
</defs>
</svg>
