<svg width="140" height="44" viewBox="0 0 140 44" fill="none" xmlns="http://www.w3.org/2000/svg">
<path d="M0 7.22388C0 3.23424 3.26466 0 7.29182 0H37.122C41.1492 0 44.4138 3.23424 44.4138 7.22388V36.7761C44.4138 40.7658 41.1492 44 37.122 44H7.29182C3.26466 44 0 40.7658 0 36.7761V7.22388Z" fill="#BCC2CA"/>
<path d="M0 6.9098C0 3.09362 3.12272 0 6.97479 0H35.508C39.3601 0 42.4828 3.09362 42.4828 6.9098V35.1772C42.4828 38.9933 39.3601 42.087 35.508 42.087H6.97478C3.12272 42.087 0 38.9933 0 35.1772V6.9098Z" fill="#DBDBDB"/>
<path d="M20.4994 18.7219C20.4994 22.1911 17.9087 25.0034 14.7128 25.0034C11.517 25.0034 8.92627 22.1911 8.92627 18.7219C8.92627 15.2527 11.517 12.4404 14.7128 12.4404C17.9087 12.4404 20.4994 15.2527 20.4994 18.7219Z" fill="white"/>
<path d="M16.6211 19.5756C16.6211 21.5628 15.119 23.1738 13.2661 23.1738C11.4132 23.1738 9.91113 21.5628 9.91113 19.5756C9.91113 17.5884 11.4132 15.9775 13.2661 15.9775C15.119 15.9775 16.6211 17.5884 16.6211 19.5756Z" fill="#646464"/>
<path d="M33.1191 18.7219C33.1191 22.1911 30.5421 25.0034 27.3633 25.0034C24.1845 25.0034 21.6075 22.1911 21.6075 18.7219C21.6075 15.2527 24.1845 12.4404 27.3633 12.4404C30.5421 12.4404 33.1191 15.2527 33.1191 18.7219Z" fill="white"/>
<path d="M29.3024 19.5756C29.3024 21.5628 27.8003 23.1738 25.9474 23.1738C24.0945 23.1738 22.5924 21.5628 22.5924 19.5756C22.5924 17.5884 24.0945 15.9775 25.9474 15.9775C27.8003 15.9775 29.3024 17.5884 29.3024 19.5756Z" fill="#646464"/>
<ellipse rx="1.46694" ry="3.27669" transform="matrix(0.556849 0.830614 -0.835387 0.549662 5.16684 4.26233)" fill="white" fill-opacity="0.3"/>
<ellipse cx="1.93109" cy="7.6522" rx="0.965518" ry="0.956522" fill="white" fill-opacity="0.3"/>
<path d="M91.2257 22.3021C91.2257 34.2504 81.4486 43.9364 69.388 43.9364C57.3274 43.9364 47.5503 34.2504 47.5503 22.3021C47.5503 10.3539 57.3274 0.667908 69.388 0.667908C81.4486 0.667908 91.2257 10.3539 91.2257 22.3021Z" fill="#BCC2CA"/>
<path d="M89.4681 21.4316C89.4681 32.899 80.0845 42.1952 68.5092 42.1952C56.9339 42.1952 47.5503 32.899 47.5503 21.4316C47.5503 9.96411 56.9339 0.667908 68.5092 0.667908C80.0845 0.667908 89.4681 9.96411 89.4681 21.4316Z" fill="#DBDBDB"/>
<path d="M68.4654 21.5187C68.4654 24.7642 66.0654 27.3952 63.1048 27.3952C60.1443 27.3952 57.7443 24.7642 57.7443 21.5187C57.7443 18.2732 60.1443 15.6422 63.1048 15.6422C66.0654 15.6422 68.4654 18.2732 68.4654 21.5187Z" fill="white"/>
<path d="M67.5868 22.3887C67.5868 24.2398 66.2097 25.7405 64.511 25.7405C62.8124 25.7405 61.4353 24.2398 61.4353 22.3887C61.4353 20.5376 62.8124 19.0369 64.511 19.0369C66.2097 19.0369 67.5868 20.5376 67.5868 22.3887Z" fill="#646464"/>
<path d="M80.3289 21.5181C80.3289 24.7636 77.9289 27.3946 74.9684 27.3946C72.0078 27.3946 69.6078 24.7636 69.6078 21.5181C69.6078 18.2726 72.0078 15.6416 74.9684 15.6416C77.9289 15.6416 80.3289 18.2726 80.3289 21.5181Z" fill="white"/>
<path d="M79.4502 22.3887C79.4502 24.2398 78.0731 25.7405 76.3744 25.7405C74.6758 25.7405 73.2987 24.2398 73.2987 22.3887C73.2987 20.5376 74.6758 19.0369 76.3744 19.0369C78.0731 19.0369 79.4502 20.5376 79.4502 22.3887Z" fill="#646464"/>
<ellipse rx="1.22422" ry="3.27669" transform="matrix(0.556849 0.830613 -0.835388 0.549661 58.4389 5.7495)" fill="white" fill-opacity="0.3"/>
<ellipse rx="0.916959" ry="1.14906" transform="matrix(0.735918 0.677071 -0.683912 0.729565 54.2836 9.00487)" fill="white" fill-opacity="0.3"/>
<path d="M112.237 3.08485C114.05 -0.13221 118.598 -0.132206 120.41 3.08486L139.366 36.7316C141.173 39.9388 138.904 43.9405 135.279 43.9405H97.368C93.7431 43.9405 91.4748 39.9388 93.2817 36.7316L112.237 3.08485Z" fill="#BCC2CA"/>
<path d="M111.397 3.01046C113.156 -0.112944 117.569 -0.112941 119.327 3.01046L137.72 35.6775C139.473 38.7914 137.272 42.6766 133.755 42.6766H96.9698C93.4526 42.6766 91.2517 38.7914 93.0049 35.6775L111.397 3.01046Z" fill="#DBDBDB"/>
<path d="M114.775 23.9638C114.775 27.2288 112.349 29.8757 109.356 29.8757C106.363 29.8757 103.937 27.2288 103.937 23.9638C103.937 20.6988 106.363 18.0519 109.356 18.0519C112.349 18.0519 114.775 20.6988 114.775 23.9638Z" fill="white"/>
<path d="M114.775 24.8266C114.775 26.6974 113.375 28.214 111.646 28.214C109.918 28.214 108.518 26.6974 108.518 24.8266C108.518 22.9558 109.918 21.4393 111.646 21.4393C113.375 21.4393 114.775 22.9558 114.775 24.8266Z" fill="#646464"/>
<path d="M126.711 23.9638C126.711 27.2288 124.299 29.8757 121.324 29.8757C118.349 29.8757 115.937 27.2288 115.937 23.9638C115.937 20.6988 118.349 18.0519 121.324 18.0519C124.299 18.0519 126.711 20.6988 126.711 23.9638Z" fill="white"/>
<path d="M126.711 24.8266C126.711 26.6974 125.31 28.214 123.582 28.214C121.854 28.214 120.453 26.6974 120.453 24.8266C120.453 22.9558 121.854 21.4393 123.582 21.4393C125.31 21.4393 126.711 22.9558 126.711 24.8266Z" fill="#646464"/>
<ellipse rx="1.34934" ry="2.75728" transform="matrix(0.844112 0.536166 -0.543328 0.839521 113.679 4.08959)" fill="white" fill-opacity="0.3"/>
<ellipse rx="0.841466" ry="1.3005" transform="matrix(0.893703 0.448658 -0.455392 0.890291 110.894 8.19337)" fill="white" fill-opacity="0.3"/>
</svg>
