<svg width="20" height="20" viewBox="0 0 20 20" fill="none" xmlns="http://www.w3.org/2000/svg">
<path d="M17.9996 10.1805C17.9996 9.61249 17.9454 9.06571 17.8534 8.54547H10.1621V11.6404H14.5548C14.3652 12.6384 13.7911 13.4877 12.9245 14.0557L15.5622 16.0624C17.1113 14.6715 17.9996 12.6171 17.9996 10.1805Z" fill="#1976D2"/>
<path d="M10.1621 18C12.3665 18 14.2135 17.2833 15.5622 16.0624L12.9244 14.0557C12.1932 14.5335 11.2562 14.8202 10.1621 14.8202C8.03344 14.8202 6.2352 13.4134 5.59607 11.5236L2.86621 13.5939C4.20947 16.211 6.97183 18 10.1621 18Z" fill="#4CAF50"/>
<path d="M2.86662 6.4061C2.31415 7.48904 2 8.71001 2 9.99999C2 11.29 2.31415 12.5109 2.86662 13.5939L5.59648 11.5182C5.43399 11.0405 5.34191 10.5255 5.34191 9.99999C5.34191 9.47444 5.43399 8.95951 5.59648 8.48174L2.86662 6.4061Z" fill="#FFC107"/>
<path d="M2.86621 6.4061L5.59607 8.47644C6.24062 6.5866 8.03886 5.17983 10.1621 5.17983C11.3591 5.17983 12.437 5.58328 13.2819 6.37425L15.6218 4.08096C14.2135 2.79098 12.3611 2 10.1621 2C6.97183 2 4.20947 3.79429 2.86621 6.4061Z" fill="#FF3D00"/>
</svg>
