<svg width="539" height="365" viewBox="0 0 539 365" fill="none" xmlns="http://www.w3.org/2000/svg">
<g clip-path="url(#clip0_972:12905)">
<ellipse rx="162.598" ry="162.611" transform="matrix(0.96592 0.25884 -0.258798 0.965932 352.462 179.946)" fill="#F3F3F5"/>
<ellipse rx="129.431" ry="129.441" transform="matrix(0.96592 0.25884 -0.258798 0.965932 188.526 138.528)" fill="#F3F3F5"/>
<path d="M509.595 279.076H444.082C442.182 279.076 440.682 277.576 440.682 275.676V262.972C440.682 261.072 442.182 259.571 444.082 259.571H509.595C511.495 259.571 512.995 261.072 512.995 262.972V275.676C512.995 277.576 511.495 279.076 509.595 279.076Z" fill="#FFFEF8"/>
<path d="M509.895 259.571H447.383C445.683 259.571 444.282 258.171 444.282 256.47V247.168C444.282 245.467 445.683 244.067 447.383 244.067H509.895C511.595 244.067 512.995 245.467 512.995 247.168V256.47C512.995 258.171 511.595 259.571 509.895 259.571Z" fill="#E7E4D8"/>
<path d="M505.094 243.967H440.782C438.881 243.967 437.381 242.466 437.381 240.566V235.565C437.381 233.664 438.881 232.164 440.782 232.164H505.094C506.994 232.164 508.494 233.664 508.494 235.565V240.566C508.494 242.466 506.994 243.967 505.094 243.967Z" fill="#D6D6D6"/>
<path d="M509.695 232.364H454.384C452.584 232.364 451.184 230.863 451.184 229.163C451.184 227.362 452.684 225.962 454.384 225.962H509.695C511.495 225.962 512.895 227.462 512.895 229.163C512.995 230.863 511.495 232.364 509.695 232.364Z" fill="#EFF0F3"/>
<path d="M402.575 225.862H354.166C352.865 225.862 351.965 224.662 352.165 223.461L361.867 177.349C362.067 176.448 362.867 175.748 363.867 175.748H392.673C393.573 175.748 394.473 176.448 394.673 177.349L404.575 223.461C404.875 224.662 403.875 225.862 402.575 225.862Z" fill="#FFFEF8"/>
<path d="M381.571 225.862H374.969V272.975H381.571V225.862Z" fill="#D6D6D6"/>
<path d="M392.773 279.076H364.268C362.967 279.076 361.867 277.976 361.867 276.676V275.576C361.867 274.275 362.967 273.175 364.268 273.175H392.773C394.073 273.175 395.173 274.275 395.173 275.576V276.676C395.073 278.076 394.073 279.076 392.773 279.076Z" fill="#D6D6D6"/>
<path d="M155.429 161.944C155.429 161.944 159.029 185.851 171.732 185.251C184.434 184.551 190.235 175.548 190.235 175.548C190.235 175.548 202.938 185.951 213.84 184.951C213.84 184.951 223.741 184.351 227.742 163.745C227.742 163.745 271.05 175.148 284.053 230.763C284.053 230.763 289.154 259.971 263.249 274.975L121.723 275.375C121.723 275.375 80.915 270.374 100.819 215.159C100.819 215.059 119.822 169.346 155.429 161.944Z" fill="#FFFCF0"/>
<path d="M253.947 279.677H131.024C125.923 279.677 121.723 275.475 121.723 270.374V200.255C121.723 195.153 125.923 190.952 131.024 190.952H254.047C259.148 190.952 263.349 195.153 263.349 200.255V270.374C263.249 275.475 259.148 279.677 253.947 279.677Z" fill="#EFF0F3"/>
<path d="M244.145 110.03C244.145 110.03 263.649 135.437 235.344 142.439L222.141 140.438C222.141 140.438 231.943 124.634 233.343 120.333C234.644 116.032 244.145 110.03 244.145 110.03Z" fill="#ACACAC"/>
<path d="M165.831 159.344L155.429 161.944C155.429 161.944 158.529 181.35 171.732 185.251C171.732 185.251 185.934 180.75 190.235 175.548C190.235 175.548 201.137 182.45 210.639 184.851C210.639 184.851 223.441 187.951 227.642 163.745L214.74 159.444C214.74 159.444 209.739 180.049 181.934 175.348C182.034 175.248 170.132 172.047 165.831 159.344Z" fill="#E7E4D8"/>
<path d="M191.035 244.567C195.344 244.567 198.837 241.074 198.837 236.765C198.837 232.456 195.344 228.963 191.035 228.963C186.727 228.963 183.234 232.456 183.234 236.765C183.234 241.074 186.727 244.567 191.035 244.567Z" fill="#D6D6D6"/>
<path d="M140.526 122.233C140.526 122.233 152.128 152.742 182.334 155.143C212.539 157.543 228.842 131.936 229.342 127.335C229.843 122.734 229.943 103.428 228.042 99.8274C226.142 96.2264 224.142 82.6226 215.54 73.9203C206.938 65.2179 154.029 58.9161 146.127 94.826C146.127 94.926 144.527 95.4261 140.526 122.233Z" fill="#FEF8EF"/>
<path d="M176.533 154.442L176.433 157.543L166.931 159.144C166.931 159.144 170.332 177.649 192.436 175.448C192.436 175.448 209.639 173.748 213.84 159.644L203.138 157.543L202.838 152.142L176.533 154.442Z" fill="#FEF8EF"/>
<path d="M233.843 99.9274L234.644 116.032C234.644 116.032 247.346 108.13 246.846 102.728C246.346 97.2266 239.444 93.8257 233.843 99.9274Z" fill="#FEF8EF"/>
<path d="M132.625 84.3231L132.925 97.0266L141.926 127.535C141.926 127.535 137.826 108.93 148.328 92.2252L157.529 86.9238C157.529 86.9238 165.031 71.8197 172.232 72.92C179.433 74.0203 188.835 80.0219 188.835 80.0219C188.835 80.0219 200.337 68.5187 209.539 73.22C218.741 77.9213 220.141 89.2244 220.141 89.2244C220.141 89.2244 232.943 96.9265 229.643 112.231L229.343 127.435C229.343 127.435 237.144 116.532 233.843 99.9274C233.843 99.9274 241.245 94.6259 244.345 95.7262C244.345 95.7262 246.446 30.3083 187.435 43.712C187.435 43.712 184.034 44.6122 179.833 42.8117C179.633 42.8117 135.625 41.5114 132.625 84.3231Z" fill="#ACACAC"/>
<path d="M139.026 104.029C139.026 104.029 130.224 91.125 126.823 102.728C123.423 114.331 139.026 118.733 139.026 118.733V104.029Z" fill="#FEF8EF"/>
<path d="M493.792 255.87H449.883C449.083 255.87 448.483 255.27 448.483 254.47V249.268C448.483 248.468 449.083 247.868 449.883 247.868H493.792C494.592 247.868 495.192 248.468 495.192 249.268V254.47C495.192 255.27 494.492 255.87 493.792 255.87Z" fill="white"/>
<path d="M143.026 127.135C143.026 127.135 150.828 148.741 179.133 155.042C179.133 155.042 202.938 156.943 217.74 144.139C217.74 144.139 226.942 136.237 229.343 127.435" stroke="#757575" stroke-width="2" stroke-miterlimit="10" stroke-linecap="round" stroke-linejoin="round"/>
<path d="M138.526 103.428C137.825 122.133 143.126 127.535 143.126 127.535C143.126 127.535 141.626 116.932 142.226 112.231C142.826 107.529 142.926 93.0255 151.828 90.6248C160.73 88.2242 158.529 80.422 166.531 74.6205C174.432 68.8189 189.135 80.222 189.135 80.222C189.135 80.222 199.037 69.8191 209.039 72.92C219.041 76.0208 220.441 90.2247 220.441 90.2247C220.441 90.2247 232.043 97.7268 229.543 112.331C229.543 112.331 230.843 120.533 229.543 127.435C229.543 127.435 234.243 121.833 235.544 112.831C235.544 112.831 235.144 104.329 234.043 100.027C234.043 100.027 238.944 94.726 243.145 96.7265C247.346 98.7271 248.046 103.928 243.945 108.73C239.944 113.531 235.544 116.532 235.544 116.532" stroke="#757575" stroke-width="2" stroke-miterlimit="10" stroke-linecap="round" stroke-linejoin="round"/>
<path d="M133.025 98.2269C133.025 98.2269 124.623 41.5114 179.633 42.8118" stroke="#757575" stroke-width="2" stroke-miterlimit="10" stroke-linecap="round" stroke-linejoin="round"/>
<path d="M186.635 43.9121C186.635 43.9121 235.044 29.5081 244.045 82.2226C244.045 82.2226 244.645 88.5243 243.545 97.0266" stroke="#757575" stroke-width="2" stroke-miterlimit="10" stroke-linecap="round" stroke-linejoin="round"/>
<path d="M243.445 109.23C243.445 109.23 261.348 130.036 241.445 141.239C241.445 141.239 234.743 145.94 222.041 140.438" stroke="#757575" stroke-width="2" stroke-miterlimit="10" stroke-linecap="round" stroke-linejoin="round"/>
<path d="M202.938 153.242C202.938 153.242 202.638 157.843 203.138 161.044C203.138 161.044 205.538 162.945 209.439 161.744" stroke="#757575" stroke-width="2" stroke-miterlimit="10" stroke-linecap="round" stroke-linejoin="round"/>
<path d="M176.133 155.143C176.133 155.143 176.733 161.744 176.333 162.545C176.333 162.545 173.432 164.045 170.732 163.345" stroke="#757575" stroke-width="2" stroke-miterlimit="10" stroke-linecap="round" stroke-linejoin="round"/>
<path d="M175.333 37.2102C175.333 37.2102 182.634 38.1105 183.134 42.7117C183.134 42.7117 185.634 35.3097 191.436 33.9093" stroke="#757575" stroke-width="2" stroke-miterlimit="10" stroke-linecap="round" stroke-linejoin="round"/>
<path d="M184.134 78.5215C184.134 78.5215 173.232 78.9217 170.832 89.1245" stroke="#757575" stroke-width="2" stroke-miterlimit="10" stroke-linecap="round" stroke-linejoin="round"/>
<path d="M192.936 79.2217C192.936 79.2217 203.538 79.1217 203.138 90.8249" stroke="#757575" stroke-width="2" stroke-miterlimit="10" stroke-linecap="round" stroke-linejoin="round"/>
<path d="M192.936 105.329C192.936 105.329 201.637 101.028 208.639 105.329" stroke="#757575" stroke-width="2" stroke-miterlimit="10" stroke-linecap="round" stroke-linejoin="round"/>
<path d="M156.029 105.329C156.029 105.329 163.83 101.028 172.132 105.329" stroke="#757575" stroke-width="2" stroke-miterlimit="10" stroke-linecap="round" stroke-linejoin="round"/>
<path d="M171.832 137.038C171.832 137.038 181.634 143.639 195.536 135.037" stroke="#757575" stroke-width="2" stroke-miterlimit="10" stroke-linecap="round" stroke-linejoin="round"/>
<path d="M180.833 119.433C180.833 119.433 179.233 123.834 181.034 126.135" stroke="#757575" stroke-width="2" stroke-miterlimit="10" stroke-linecap="round" stroke-linejoin="round"/>
<path d="M160.23 113.531C160.23 113.531 167.131 109.43 169.731 113.531C172.332 117.632 168.331 120.133 167.831 120.233C167.331 120.333 163.13 121.033 162.73 115.632C162.73 115.632 161.53 115.432 160.73 115.332C159.73 115.232 158.029 114.931 160.23 113.531Z" fill="#757575"/>
<path d="M202.838 114.631C202.838 114.631 202.638 120.433 198.137 120.233C193.636 120.033 195.436 114.932 195.436 114.932C195.436 114.932 196.036 112.131 199.737 112.131C203.438 112.131 205.638 113.431 205.638 113.431C205.638 113.431 206.638 114.331 205.438 115.032L202.838 114.631Z" fill="#757575"/>
<path d="M138.526 103.428C138.526 103.428 133.125 95.6262 128.724 99.7273C124.223 103.928 127.524 110.33 132.324 114.531C136.625 118.232 139.026 118.733 139.026 118.733" stroke="#757575" stroke-width="2" stroke-miterlimit="10" stroke-linecap="round" stroke-linejoin="round"/>
<path d="M129.024 104.329C129.024 104.329 134.425 103.328 135.425 107.83" stroke="#757575" stroke-width="2" stroke-miterlimit="10" stroke-linecap="round" stroke-linejoin="round"/>
<path d="M132.425 105.329C132.425 105.329 130.224 107.329 132.225 110.43" stroke="#757575" stroke-width="2" stroke-miterlimit="10" stroke-linecap="round" stroke-linejoin="round"/>
<path d="M242.844 101.428C242.844 101.428 239.044 99.6277 237.744 104.328" stroke="#757575" stroke-width="2" stroke-miterlimit="10" stroke-linecap="round" stroke-linejoin="round"/>
<path d="M240.345 102.628C240.345 102.628 243.045 106.229 239.144 108.63" stroke="#757575" stroke-width="2" stroke-miterlimit="10" stroke-linecap="round" stroke-linejoin="round"/>
<path d="M253.947 279.677H131.024C125.923 279.677 121.723 275.475 121.723 270.374V200.255C121.723 195.153 125.923 190.952 131.024 190.952H254.047C259.148 190.952 263.349 195.153 263.349 200.255V270.374C263.249 275.475 259.148 279.677 253.947 279.677Z" stroke="#757575" stroke-width="2" stroke-miterlimit="10" stroke-linecap="round" stroke-linejoin="round"/>
<path d="M203.138 157.543C203.138 157.543 239.945 159.344 263.249 187.851C263.249 187.851 306.757 240.166 270.65 271.174C270.65 271.174 268.45 273.675 261.849 275.275" stroke="#757575" stroke-width="2" stroke-miterlimit="10" stroke-linecap="round" stroke-linejoin="round"/>
<path d="M175.933 157.943C175.933 157.943 140.226 159.344 116.922 187.851C116.922 187.851 73.4136 240.166 109.52 271.174C109.52 271.174 117.022 275.375 124.023 276.376" stroke="#757575" stroke-width="2" stroke-miterlimit="10" stroke-linecap="round" stroke-linejoin="round"/>
<path d="M166.731 159.144C166.731 159.144 168.031 175.048 186.135 175.448C204.238 175.848 208.839 170.547 213.84 159.644" stroke="#757575" stroke-width="2" stroke-miterlimit="10" stroke-linecap="round" stroke-linejoin="round"/>
<path d="M227.742 163.645C227.742 163.645 222.941 182.45 214.84 184.651C206.738 186.851 189.835 175.448 189.835 175.448C189.835 175.448 175.032 190.052 166.131 183.55C157.229 177.049 155.429 161.944 155.429 161.944" stroke="#757575" stroke-width="2" stroke-miterlimit="10" stroke-linecap="round" stroke-linejoin="round"/>
<path d="M533.099 293.28H5.90107C3.10055 293.28 0.900146 291.08 0.900146 288.279V284.678C0.900146 281.877 3.10055 279.677 5.90107 279.677H533.099C535.899 279.677 538.1 281.877 538.1 284.678V288.279C538.1 290.98 535.899 293.28 533.099 293.28Z" stroke="#757575" stroke-width="1.7391" stroke-miterlimit="10" stroke-linecap="round" stroke-linejoin="round"/>
<path d="M533.099 293.28H5.90107C3.10055 293.28 0.900146 291.08 0.900146 288.279V284.678C0.900146 281.877 3.10055 279.677 5.90107 279.677H533.099C535.899 279.677 538.1 281.877 538.1 284.678V288.279C538.1 290.98 535.899 293.28 533.099 293.28Z" fill="#FBFBFB" stroke="#757575" stroke-width="1.7391" stroke-miterlimit="10" stroke-linecap="round" stroke-linejoin="round"/>
<path d="M402.575 225.862H354.166C352.865 225.862 351.965 224.662 352.165 223.461L361.867 177.349C362.067 176.448 362.867 175.748 363.867 175.748H392.673C393.573 175.748 394.473 176.448 394.673 177.349L404.575 223.461C404.875 224.662 403.875 225.862 402.575 225.862Z" stroke="#757575" stroke-width="2" stroke-miterlimit="10" stroke-linecap="round" stroke-linejoin="round"/>
<path d="M381.571 225.862H374.969V272.975H381.571V225.862Z" stroke="#757575" stroke-width="1.9517" stroke-miterlimit="10" stroke-linecap="round" stroke-linejoin="round"/>
<path d="M392.773 279.076H364.268C362.967 279.076 361.867 277.976 361.867 276.676V275.576C361.867 274.275 362.967 273.175 364.268 273.175H392.773C394.073 273.175 395.173 274.275 395.173 275.576V276.676C395.073 278.076 394.073 279.076 392.773 279.076Z" stroke="#757575" stroke-width="1.5151" stroke-miterlimit="10" stroke-linecap="round" stroke-linejoin="round"/>
<path d="M510.495 279.076H443.182C441.782 279.076 440.682 277.976 440.682 276.576V262.072C440.682 260.671 441.782 259.571 443.182 259.571H510.495C511.895 259.571 512.995 260.671 512.995 262.072V276.576C512.995 277.976 511.895 279.076 510.495 279.076Z" stroke="#757575" stroke-width="1.7391" stroke-miterlimit="10" stroke-linecap="round" stroke-linejoin="round"/>
<path d="M510.395 259.571H446.783C445.383 259.571 444.182 258.371 444.182 256.97V246.468C444.182 245.067 445.383 243.867 446.783 243.867H510.395C511.795 243.867 512.995 245.067 512.995 246.468V257.07C512.995 258.471 511.795 259.571 510.395 259.571Z" stroke="#757575" stroke-width="1.7391" stroke-miterlimit="10" stroke-linecap="round" stroke-linejoin="round"/>
<path d="M505.294 243.967H440.482C438.781 243.967 437.381 242.566 437.381 240.866V235.364C437.381 233.664 438.781 232.264 440.482 232.264H505.294C506.994 232.264 508.394 233.664 508.394 235.364V240.866C508.494 242.666 507.094 243.967 505.294 243.967Z" stroke="#757575" stroke-width="1.7391" stroke-miterlimit="10" stroke-linecap="round" stroke-linejoin="round"/>
<path d="M510.495 232.364H453.584C452.284 232.364 451.184 231.263 451.184 229.963V228.363C451.184 227.062 452.284 225.962 453.584 225.962H510.495C511.795 225.962 512.895 227.062 512.895 228.363V229.963C512.995 231.263 511.895 232.364 510.495 232.364Z" stroke="#757575" stroke-width="1.7391" stroke-miterlimit="10" stroke-linecap="round" stroke-linejoin="round"/>
</g>
<defs>
<clipPath id="clip0_972:12905">
<rect width="539" height="365" fill="white"/>
</clipPath>
</defs>
</svg>
