<svg width="62" height="21" viewBox="0 0 62 21" fill="none" xmlns="http://www.w3.org/2000/svg">
<path d="M1 0H62L61 21H0L1 0Z" fill="#EFF0F3"/>
<path d="M30.4989 9.72194C30.4989 13.1911 27.9082 16.0034 24.7123 16.0034C21.5165 16.0034 18.9258 13.1911 18.9258 9.72194C18.9258 6.25276 21.5165 3.44043 24.7123 3.44043C27.9082 3.44043 30.4989 6.25276 30.4989 9.72194Z" fill="white"/>
<path d="M26.6206 10.5757C26.6206 12.5629 25.1185 14.1738 23.2656 14.1738C21.4127 14.1738 19.9106 12.5629 19.9106 10.5757C19.9106 8.58848 21.4127 6.97754 23.2656 6.97754C25.1185 6.97754 26.6206 8.58848 26.6206 10.5757Z" fill="#646464"/>
<path d="M43.1186 9.72194C43.1186 13.1911 40.5417 16.0034 37.3628 16.0034C34.184 16.0034 31.6071 13.1911 31.6071 9.72194C31.6071 6.25276 34.184 3.44043 37.3628 3.44043C40.5417 3.44043 43.1186 6.25276 43.1186 9.72194Z" fill="white"/>
<path d="M39.3019 10.5757C39.3019 12.5629 37.7998 14.1738 35.9469 14.1738C34.094 14.1738 32.5919 12.5629 32.5919 10.5757C32.5919 8.58848 34.094 6.97754 35.9469 6.97754C37.7998 6.97754 39.3019 8.58848 39.3019 10.5757Z" fill="#646464"/>
<path d="M60.5 0H62L61 21H59L60.5 0Z" fill="#DBDBDB"/>
<path d="M2 21L0 21L1 -1.74846e-07L3 0L2 21Z" fill="#DBDBDB"/>
</svg>
