<svg width="71" height="65" viewBox="0 0 71 65" fill="none" xmlns="http://www.w3.org/2000/svg">
<path d="M29.3987 3.60034C32.0859 -1.20012 38.8288 -1.20011 41.5161 3.60034L69.6216 53.8074C72.3006 58.5932 68.9374 64.5645 63.5629 64.5645H7.35186C1.97731 64.5645 -1.38588 58.5932 1.29318 53.8074L29.3987 3.60034Z" fill="#A1A1A1"/>
<path d="M28.1703 3.50197C30.7765 -1.16733 37.3161 -1.16732 39.9223 3.50197L67.1804 52.3372C69.7787 56.9923 66.5169 62.8005 61.3044 62.8005H6.78821C1.57571 62.8005 -1.68608 56.9923 0.912202 52.3372L28.1703 3.50197Z" fill="#BEBEBE"/>
<path d="M28.4747 5.77495C30.9459 1.36798 37.1467 1.36799 39.6178 5.77496L65.4636 51.8667C67.9273 56.2602 64.8345 61.7421 59.8921 61.7421H8.20053C3.25811 61.7421 0.165321 56.2602 2.62898 51.8667L28.4747 5.77495Z" fill="#DBDBDB"/>
<path fill-rule="evenodd" clip-rule="evenodd" d="M65.0447 52.0992L39.199 6.00747C36.9107 1.92679 31.1819 1.92679 28.8936 6.00746L3.04787 52.0992C0.750544 56.1961 3.64868 61.2648 8.20053 61.2648H59.8921C64.4439 61.2648 67.342 56.1961 65.0447 52.0992ZM39.6178 5.77496C37.1467 1.36799 30.9459 1.36798 28.4747 5.77495L2.62898 51.8667C0.165321 56.2602 3.25811 61.7421 8.20053 61.7421H59.8921C64.8345 61.7421 67.9273 56.2602 65.4636 51.8667L39.6178 5.77496Z" fill="#E6E6E6"/>
<path d="M32.6665 9.78382C31.4402 11.6963 29.6904 12.7622 28.7581 12.1644C27.8258 11.5667 28.0641 9.53172 29.2903 7.61919C30.5166 5.70666 32.2664 4.64082 33.1987 5.23856C34.131 5.83631 33.8927 7.87129 32.6665 9.78382Z" fill="white" fill-opacity="0.3"/>
<path d="M27.9666 15.4047C27.4818 16.3613 26.5898 16.8839 25.9743 16.572C25.3587 16.2601 25.2527 15.2317 25.7375 14.2751C26.2222 13.3185 27.1142 12.7958 27.7298 13.1078C28.3453 13.4197 28.4513 14.448 27.9666 15.4047Z" fill="white" fill-opacity="0.3"/>
<path d="M27.9059 38.329C27.9059 40.941 25.7885 43.0584 23.1765 43.0584C20.5645 43.0584 18.4471 40.941 18.4471 38.329C18.4471 35.717 20.5645 33.5996 23.1765 33.5996C25.7885 33.5996 27.9059 35.717 27.9059 38.329Z" fill="#757575"/>
<path d="M27.5252 38.1387C27.5252 40.6455 25.493 42.6778 22.9862 42.6778C20.4793 42.6778 18.4471 40.6455 18.4471 38.1387C18.4471 35.6318 20.4793 33.5996 22.9862 33.5996C25.493 33.5996 27.5252 35.6318 27.5252 38.1387Z" fill="#A1A1A1"/>
<path d="M38.9881 38.329C38.9881 40.941 36.8707 43.0584 34.2588 43.0584C31.6468 43.0584 29.5294 40.941 29.5294 38.329C29.5294 35.717 31.6468 33.5996 34.2588 33.5996C36.8707 33.5996 38.9881 35.717 38.9881 38.329Z" fill="#757575"/>
<path d="M38.6075 38.1387C38.6075 40.6455 36.5753 42.6778 34.0684 42.6778C31.5616 42.6778 29.5294 40.6455 29.5294 38.1387C29.5294 35.6318 31.5616 33.5996 34.0684 33.5996C36.5753 33.5996 38.6075 35.6318 38.6075 38.1387Z" fill="#A1A1A1"/>
<path d="M50.0704 38.329C50.0704 40.941 47.953 43.0584 45.3411 43.0584C42.7291 43.0584 40.6117 40.941 40.6117 38.329C40.6117 35.717 42.7291 33.5996 45.3411 33.5996C47.953 33.5996 50.0704 35.717 50.0704 38.329Z" fill="#757575"/>
<path d="M49.6898 38.1387C49.6898 40.6455 47.6576 42.6778 45.1507 42.6778C42.6439 42.6778 40.6117 40.6455 40.6117 38.1387C40.6117 35.6318 42.6439 33.5996 45.1507 33.5996C47.6576 33.5996 49.6898 35.6318 49.6898 38.1387Z" fill="#A1A1A1"/>
</svg>
