<svg width="71" height="65" viewBox="0 0 71 65" fill="none" xmlns="http://www.w3.org/2000/svg">
<path d="M29.3987 3.60034C32.086 -1.20012 38.8288 -1.20011 41.5161 3.60034L69.6216 53.8074C72.3007 58.5932 68.9375 64.5645 63.5629 64.5645H7.3519C1.97736 64.5645 -1.38583 58.5932 1.29322 53.8074L29.3987 3.60034Z" fill="#FF994E"/>
<path d="M28.1703 3.50197C30.7765 -1.16733 37.3161 -1.16732 39.9223 3.50197L67.1804 52.3372C69.7787 56.9923 66.5169 62.8005 61.3044 62.8005H6.78821C1.57571 62.8005 -1.68608 56.9923 0.912202 52.3372L28.1703 3.50197Z" fill="#FFB54E"/>
<path d="M28.4747 5.77544C30.9459 1.36847 37.1467 1.36847 39.6178 5.77545L65.4636 51.8672C67.9273 56.2607 64.8345 61.7425 59.8921 61.7425H8.20053C3.25811 61.7425 0.165321 56.2607 2.62898 51.8672L28.4747 5.77544Z" fill="#FFCB83"/>
<path fill-rule="evenodd" clip-rule="evenodd" d="M65.0447 52.0997L39.1989 6.00795C36.9107 1.92728 31.1819 1.92728 28.8936 6.00795L3.04787 52.0997C0.750544 56.1966 3.64868 61.2653 8.20053 61.2653H59.8921C64.4439 61.2653 67.342 56.1966 65.0447 52.0997ZM39.6178 5.77545C37.1467 1.36847 30.9459 1.36847 28.4747 5.77544L2.62898 51.8672C0.165321 56.2607 3.25811 61.7425 8.20053 61.7425H59.8921C64.8345 61.7425 67.9273 56.2607 65.4636 51.8672L39.6178 5.77545Z" fill="#FF994E"/>
<path d="M32.6664 9.78431C31.4402 11.6968 29.6904 12.7627 28.7581 12.1649C27.8258 11.5672 28.0641 9.53221 29.2903 7.61968C30.5166 5.70715 32.2664 4.64131 33.1987 5.23905C34.131 5.8368 33.8927 7.87178 32.6664 9.78431Z" fill="white" fill-opacity="0.3"/>
<path d="M27.9666 15.4051C27.4818 16.3618 26.5899 16.8844 25.9743 16.5725C25.3588 16.2605 25.2527 15.2322 25.7375 14.2756C26.2223 13.319 27.1142 12.7963 27.7298 13.1082C28.3453 13.4202 28.4514 14.4485 27.9666 15.4051Z" fill="white" fill-opacity="0.3"/>
<path d="M30.0151 25.459C29.7545 23.1759 31.471 21.1685 33.6839 21.1685H34.4085C36.6249 21.1685 38.3425 23.182 38.0763 25.4681L35.9944 43.3464C35.8739 44.3813 35.0287 45.1596 34.0254 45.1596C33.0203 45.1596 32.1741 44.3785 32.0558 43.3415L30.0151 25.459Z" fill="#FF5C4E"/>
<path d="M37.0449 50.4514C37.0449 52.0102 35.7812 53.2739 34.2224 53.2739C32.6636 53.2739 31.3999 52.0102 31.3999 50.4514C31.3999 48.8926 32.6636 47.6289 34.2224 47.6289C35.7812 47.6289 37.0449 48.8926 37.0449 50.4514Z" fill="#FF5C4E"/>
</svg>
