<svg width="190" height="190" viewBox="0 0 190 190" fill="none" xmlns="http://www.w3.org/2000/svg">
<path d="M7.90323 136.965H185L182.097 163.034H5L7.90323 136.965Z" fill="#EFF0F3" fill-opacity="0.8"/>
<path d="M182.862 136.965H184.724L183.483 163.034H181L182.862 136.965Z" fill="#EFF0F3"/>
<path d="M7.48323 163.069L5.00047 163.069L6.24185 137L8.72461 137L7.48323 163.069Z" fill="#EFF0F3"/>
<path d="M43.9959 154.345H39.1807L34.1182 140.976L31.7906 154.345H26.8154L30.4814 133.164H35.3402L40.3882 146.533L42.7012 133.164H47.6764L43.9959 154.345Z" fill="#A1A1A1" fill-opacity="0.8"/>
<path d="M56.2303 138.314C57.6365 138.333 58.8537 138.687 59.8817 139.376C60.9097 140.054 61.6613 141.005 62.1365 142.227C62.6215 143.449 62.796 144.807 62.6603 146.3L62.6312 146.62C62.3596 149.035 61.4625 150.984 59.9399 152.468C58.4173 153.952 56.5358 154.675 54.2955 154.636C52.8989 154.616 51.6915 154.272 50.6732 153.603C49.6549 152.924 48.8984 151.978 48.4038 150.766C47.9189 149.554 47.7443 148.206 47.8801 146.722C48.1225 144.142 49.0051 142.086 50.5277 140.554C52.06 139.022 53.9609 138.275 56.2303 138.314ZM52.6662 146.722L52.6225 147.58C52.4868 149.743 53.1462 150.844 54.601 150.883C56.4825 150.941 57.5735 149.413 57.8742 146.3L57.9323 144.976C57.9517 144.103 57.7869 143.41 57.4377 142.896C57.0983 142.372 56.594 142.101 55.9248 142.081C55.0423 142.052 54.3149 142.416 53.7427 143.172C53.1802 143.919 52.8214 145.102 52.6662 146.722Z" fill="#A1A1A1" fill-opacity="0.8"/>
<path d="M72.407 134.691L71.7233 138.605H74.24L73.6436 142.009H71.1269L69.9049 149.239C69.837 149.733 69.8661 150.107 69.9922 150.359C70.1279 150.611 70.4577 150.747 70.9814 150.766C71.185 150.776 71.6021 150.752 72.2325 150.693L71.8833 154.243C71.0784 154.505 70.2201 154.626 69.3084 154.607C67.8246 154.587 66.7141 154.151 65.9771 153.297C65.24 152.444 64.9394 151.285 65.0751 149.821L66.3553 142.009H64.4059L64.9878 138.605H66.9372L67.6209 134.691H72.407Z" fill="#A1A1A1" fill-opacity="0.8"/>
<path d="M95.5083 145.907H87.5218L86.0525 154.345H81.0773L84.7432 133.164H98.5196L97.8359 137.106H89.0493L88.2055 141.98H96.192L95.5083 145.907Z" fill="#A1A1A1" fill-opacity="0.8"/>
<path d="M105.662 138.314C107.069 138.333 108.286 138.687 109.314 139.376C110.342 140.054 111.093 141.005 111.569 142.227C112.054 143.449 112.228 144.807 112.092 146.3L112.063 146.62C111.792 149.035 110.895 150.984 109.372 152.468C107.849 153.952 105.968 154.675 103.728 154.636C102.331 154.616 101.124 154.272 100.105 153.603C99.087 152.924 98.3305 151.978 97.8359 150.766C97.351 149.554 97.1764 148.206 97.3122 146.722C97.5546 144.142 98.4372 142.086 99.9598 140.554C101.492 139.022 103.393 138.275 105.662 138.314ZM102.098 146.722L102.055 147.58C101.919 149.743 102.578 150.844 104.033 150.883C105.915 150.941 107.006 149.413 107.306 146.3L107.364 144.976C107.384 144.103 107.219 143.41 106.87 142.896C106.53 142.372 106.026 142.101 105.357 142.081C104.474 142.052 103.747 142.416 103.175 143.172C102.612 143.919 102.253 145.102 102.098 146.722Z" fill="#A1A1A1" fill-opacity="0.8"/>
<path d="M122.596 152.628C121.422 154.015 120.006 154.689 118.348 154.65C116.806 154.631 115.642 154.093 114.856 153.036C114.081 151.978 113.78 150.562 113.954 148.788L115.656 138.605H120.443L118.711 148.846C118.682 149.127 118.682 149.384 118.711 149.617C118.779 150.412 119.25 150.824 120.123 150.853C121.131 150.892 121.989 150.495 122.697 149.661L124.647 138.605H129.462L126.727 154.345H122.276L122.596 152.628Z" fill="#A1A1A1" fill-opacity="0.8"/>
<path d="M136.401 138.59L136.067 140.481C137.327 138.988 138.845 138.26 140.62 138.299C142.075 138.328 143.156 138.871 143.864 139.928C144.582 140.976 144.843 142.479 144.649 144.438L142.991 154.345H138.19L139.863 144.409C139.902 144.07 139.912 143.759 139.892 143.478C139.825 142.557 139.281 142.096 138.263 142.096C137.419 142.077 136.648 142.45 135.95 143.216L133.986 154.345H129.2L131.935 138.605L136.401 138.59Z" fill="#A1A1A1" fill-opacity="0.8"/>
<path d="M146.526 146.446C146.827 143.963 147.583 141.975 148.795 140.481C150.008 138.988 151.589 138.265 153.538 138.314C154.876 138.352 155.987 138.915 156.869 140.001L158.397 132H163.197L159.328 154.345H155.065L155.269 152.643C154.096 154.02 152.791 154.689 151.356 154.65C149.843 154.631 148.655 154.073 147.792 152.977C146.938 151.872 146.482 150.393 146.424 148.54C146.405 147.929 146.424 147.333 146.482 146.751L146.526 146.446ZM151.298 146.766C151.22 147.386 151.186 147.929 151.196 148.395C151.196 150.005 151.739 150.824 152.825 150.853C153.766 150.883 154.605 150.432 155.342 149.501L156.418 143.463C156.098 142.571 155.458 142.11 154.498 142.081C153.606 142.062 152.883 142.45 152.331 143.245C151.787 144.031 151.443 145.204 151.298 146.766Z" fill="#A1A1A1" fill-opacity="0.8"/>
<path d="M162.892 152.134C162.873 151.397 163.125 150.786 163.648 150.301C164.172 149.816 164.798 149.573 165.525 149.573C166.243 149.573 166.854 149.796 167.358 150.242C167.862 150.679 168.124 151.251 168.144 151.959C168.163 152.686 167.916 153.297 167.402 153.792C166.888 154.277 166.257 154.519 165.51 154.519C164.773 154.519 164.158 154.296 163.663 153.85C163.168 153.404 162.911 152.832 162.892 152.134Z" fill="#A1A1A1" fill-opacity="0.8"/>
<path d="M54.9318 37.1724H130.656L129.415 63.2413H53.6904L54.9318 37.1724Z" fill="#FFDEDC" fill-opacity="0.7"/>
<path d="M91.5513 49.2406C91.5513 53.5472 88.3352 57.0383 84.368 57.0383C80.4008 57.0383 77.1847 53.5472 77.1847 49.2406C77.1847 44.934 80.4008 41.4429 84.368 41.4429C88.3352 41.4429 91.5513 44.934 91.5513 49.2406Z" fill="white"/>
<path d="M86.7378 50.3002C86.7378 52.767 84.8731 54.7668 82.573 54.7668C80.2728 54.7668 78.4082 52.767 78.4082 50.3002C78.4082 47.8333 80.2728 45.8335 82.573 45.8335C84.8731 45.8335 86.7378 47.8333 86.7378 50.3002Z" fill="#646464"/>
<path d="M107.217 49.2406C107.217 53.5472 104.018 57.0383 100.072 57.0383C96.1261 57.0383 92.9271 53.5472 92.9271 49.2406C92.9271 44.934 96.1261 41.4429 100.072 41.4429C104.018 41.4429 107.217 44.934 107.217 49.2406Z" fill="white"/>
<path d="M102.479 50.3002C102.479 52.767 100.614 54.7668 98.314 54.7668C96.0138 54.7668 94.1492 52.767 94.1492 50.3002C94.1492 47.8333 96.0138 45.8335 98.314 45.8335C100.614 45.8335 102.479 47.8333 102.479 50.3002Z" fill="#646464"/>
<path d="M128.794 37.1719H130.656L129.415 63.2408H126.932L128.794 37.1719Z" fill="#FFDEDC"/>
<path d="M56.1732 63.2412L53.6904 63.2412L54.9318 37.1722L57.4146 37.1722L56.1732 63.2412Z" fill="#FFDEDC"/>
<path d="M83.4826 59.5171H159.207L157.965 85.5861H82.2412L83.4826 59.5171Z" fill="#FFEBDC" fill-opacity="0.7"/>
<path d="M120.102 71.5863C120.102 75.8929 116.886 79.384 112.919 79.384C108.952 79.384 105.736 75.8929 105.736 71.5863C105.736 67.2797 108.952 63.7886 112.919 63.7886C116.886 63.7886 120.102 67.2797 120.102 71.5863Z" fill="white"/>
<path d="M119.123 72.6454C119.123 75.1122 117.259 77.112 114.958 77.112C112.658 77.112 110.794 75.1122 110.794 72.6454C110.794 70.1785 112.658 68.1787 114.958 68.1787C117.259 68.1787 119.123 70.1785 119.123 72.6454Z" fill="#646464"/>
<path d="M135.768 71.5858C135.768 75.8924 132.57 79.3836 128.623 79.3836C124.677 79.3836 121.478 75.8924 121.478 71.5858C121.478 67.2793 124.677 63.7881 128.623 63.7881C132.57 63.7881 135.768 67.2793 135.768 71.5858Z" fill="white"/>
<path d="M134.866 72.6454C134.866 75.1122 133.002 77.112 130.702 77.112C128.401 77.112 126.537 75.1122 126.537 72.6454C126.537 70.1785 128.401 68.1787 130.702 68.1787C133.002 68.1787 134.866 70.1785 134.866 72.6454Z" fill="#646464"/>
<path d="M157.345 59.5171H159.207L157.966 85.5861H155.483L157.345 59.5171Z" fill="#FFE6D3" fill-opacity="0.9"/>
<path d="M84.7243 85.5859L82.2416 85.5859L83.4829 59.517L85.9657 59.517L84.7243 85.5859Z" fill="#FFE6D3" fill-opacity="0.9"/>
<path d="M40.0345 81.8623H115.759L114.517 107.931H38.7931L40.0345 81.8623Z" fill="#DCECFF" fill-opacity="0.7"/>
<path d="M76.6537 93.9315C76.6537 98.2381 73.4377 101.729 69.4704 101.729C65.5032 101.729 62.2871 98.2381 62.2871 93.9315C62.2871 89.625 65.5032 86.1338 69.4704 86.1338C73.4377 86.1338 76.6537 89.625 76.6537 93.9315Z" fill="white"/>
<path d="M71.8397 94.9901C71.8397 97.457 69.9751 99.4568 67.6749 99.4568C65.3748 99.4568 63.5101 97.457 63.5101 94.9901C63.5101 92.5232 65.3748 90.5234 67.6749 90.5234C69.9751 90.5234 71.8397 92.5232 71.8397 94.9901Z" fill="#646464"/>
<path d="M92.3204 93.9305C92.3204 98.2371 89.1214 101.728 85.1753 101.728C81.2291 101.728 78.0302 98.2371 78.0302 93.9305C78.0302 89.624 81.2291 86.1328 85.1753 86.1328C89.1214 86.1328 92.3204 89.624 92.3204 93.9305Z" fill="white"/>
<path d="M87.5818 94.9901C87.5818 97.457 85.7171 99.4568 83.417 99.4568C81.1168 99.4568 79.2522 97.457 79.2522 94.9901C79.2522 92.5232 81.1168 90.5234 83.417 90.5234C85.7171 90.5234 87.5818 92.5232 87.5818 94.9901Z" fill="#646464"/>
<path d="M113.896 81.8623H115.758L114.517 107.931H112.034L113.896 81.8623Z" fill="#DCECFF" fill-opacity="0.8"/>
<path d="M41.2757 107.932L38.793 107.932L40.0343 81.8627L42.5171 81.8627L41.2757 107.932Z" fill="#DCECFF" fill-opacity="0.8"/>
<path d="M148.903 30.5235C144.929 30.2013 142.16 32.659 141.272 33.9282C140.811 34.719 141.272 34.9655 141.56 34.9899C142.021 35.0192 142.856 35.1241 143.216 35.1729C144.598 35.4365 146.671 36.4299 147.535 36.8936C149.731 37.8088 151.638 36.6169 152.034 36.1248C154.839 32.638 150.834 30.7187 148.903 30.5235Z" fill="#4E9FFF" fill-opacity="0.7"/>
<path d="M143.936 43.3735C142.294 43.2857 140.204 40.0909 139.364 38.5044C138.593 37.2158 138.971 36.7227 139.256 36.6373C139.919 36.4323 141.764 36.6251 142.604 36.7471C145.843 37.2963 146.743 38.6143 147.211 39.6027C147.679 40.5912 147.151 41.5675 146.887 42.0556C146.587 42.5315 145.577 43.4614 143.936 43.3735Z" fill="#4E9FFF" fill-opacity="0.7"/>
<path d="M139.904 26.1668C137.226 27.0455 135.933 30.9505 135.621 32.7932C135.621 33.4961 136.389 33.0861 136.773 32.7932C138.069 32.0903 139.808 31.8414 140.516 31.8048C143.453 31.7462 144.044 29.9987 143.972 29.1322C143.799 25.8227 141.188 25.7763 139.904 26.1668Z" fill="#4E9FFF" fill-opacity="0.7"/>
<path d="M145.051 39.3262C144.476 39.1212 143.756 38.3744 143.756 38.0449C143.684 37.6422 144.152 37.5689 145.051 37.8984C145.951 38.2279 146.311 39.0333 146.311 39.1432C146.311 39.253 146.275 39.436 146.095 39.4726C145.915 39.5093 145.771 39.5825 145.051 39.3262Z" fill="#DCECFF" fill-opacity="0.5"/>
<path d="M140.804 26.4028C140.919 26.1099 141.416 26.1099 141.776 26.2563C141.956 26.3295 142.496 26.5858 143.036 27.0984C143.468 27.5084 143.36 27.8061 143.252 27.9038C143.156 27.9892 142.834 28.1088 142.316 27.9038C141.798 27.6988 141.236 27.2814 141.02 27.0984C140.9 26.9885 140.689 26.6956 140.804 26.4028Z" fill="#DCECFF" fill-opacity="0.5"/>
<path d="M149.191 31.1988C149.277 30.6716 150.067 30.9791 150.451 31.1988C151.422 31.7113 152.07 32.6266 152.07 32.7364C152.07 32.8462 152.07 33.0659 151.566 33.1757C151.163 33.2636 150.367 32.773 150.019 32.5168C149.707 32.2971 149.104 31.726 149.191 31.1988Z" fill="#DCECFF" fill-opacity="0.5"/>
</svg>
