<svg width="42" height="42" viewBox="0 0 42 42" fill="none" xmlns="http://www.w3.org/2000/svg">
<circle cx="21" cy="21" r="21" fill="#FFF0DC"/>
<path d="M7.70996 12.3582C7.70996 11.8589 8.11476 11.4541 8.6141 11.4541H14.9431C15.4424 11.4541 15.8472 11.8589 15.8472 12.3582V18.6872C15.8472 19.1866 15.4424 19.5914 14.9431 19.5914H8.6141C8.11476 19.5914 7.70996 19.1866 7.70996 18.6872V12.3582Z" fill="#FF5C4E"/>
<path d="M34.4849 29.5719C34.4849 30.0713 34.0801 30.4761 33.5807 30.4761L27.2517 30.4761C26.7524 30.4761 26.3476 30.0713 26.3476 29.5719L26.3476 23.243C26.3476 22.7436 26.7524 22.3388 27.2517 22.3388L33.5807 22.3388C34.0801 22.3388 34.4849 22.7436 34.4849 23.243L34.4849 29.5719Z" fill="#FFB54E"/>
<path d="M25.4311 15.5681C25.4311 17.94 23.5083 19.8628 21.1365 19.8628C18.7646 19.8628 16.8418 17.94 16.8418 15.5681C16.8418 13.1962 18.7646 11.2734 21.1365 11.2734C23.5083 11.2734 25.4311 13.1962 25.4311 15.5681Z" fill="#FF5C4E"/>
<path d="M29.5753 11.9134C29.9229 11.3088 30.7952 11.3088 31.1429 11.9134L34.7789 18.2368C35.1254 18.8396 34.6904 19.5917 33.9951 19.5917H26.7231C26.0278 19.5917 25.5927 18.8396 25.9393 18.2368L29.5753 11.9134Z" fill="#FF5C4E"/>
<path d="M16.7642 26.3626C16.7642 23.9907 18.687 22.0679 21.0589 22.0679C23.4307 22.0679 25.3535 23.9907 25.3535 26.3626C25.3535 28.7344 23.4307 30.6572 21.0589 30.6572C18.687 30.6572 16.7642 28.7344 16.7642 26.3626Z" fill="#FFB54E"/>
<path d="M12.62 30.0173C12.2724 30.6219 11.4001 30.6219 11.0524 30.0173L7.41645 23.6938C7.06987 23.0911 7.50496 22.339 8.20026 22.339L15.4722 22.339C16.1675 22.339 16.6026 23.0911 16.256 23.6938L12.62 30.0173Z" fill="#FFB54E"/>
</svg>
