<svg width="144" height="144" viewBox="0 0 144 144" fill="none" xmlns="http://www.w3.org/2000/svg">
<path d="M144 72C144 111.765 111.765 144 72 144C32.2355 144 0 111.765 0 72C0 32.2355 32.2355 0 72 0C111.765 0 144 32.2355 144 72Z" fill="#FFDEDC"/>
<path d="M65.5223 39.9566C68.4616 34.6902 75.8369 34.6902 78.7762 39.9566L109.518 95.0368C112.448 100.287 108.77 106.838 102.891 106.838H41.4076C35.5289 106.838 31.8503 100.287 34.7806 95.0368L65.5223 39.9566Z" fill="#E13122"/>
<path d="M64.1599 39.8348C67.0119 34.7217 74.1681 34.7217 77.0201 39.8348L106.848 93.3113C109.692 98.4088 106.122 104.769 100.418 104.769H40.7616C35.0576 104.769 31.4882 98.4088 34.3315 93.3113L64.1599 39.8348Z" fill="#FF5C4E"/>
<path d="M69.6382 74.1358C69.6382 79.4807 65.7035 83.8137 60.8497 83.8137C55.996 83.8137 52.0612 79.4807 52.0612 74.1358C52.0612 68.7909 55.996 64.458 60.8497 64.458C65.7035 64.458 69.6382 68.7909 69.6382 74.1358Z" fill="white"/>
<path d="M69.6384 75.5481C69.6384 78.6106 67.3665 81.0932 64.5641 81.0932C61.7616 81.0932 59.4897 78.6106 59.4897 75.5481C59.4897 72.4856 61.7616 70.0029 64.5641 70.0029C67.3665 70.0029 69.6384 72.4856 69.6384 75.5481Z" fill="#646464"/>
<path d="M88.9938 74.1358C88.9938 79.4807 85.0825 83.8137 80.2576 83.8137C75.4328 83.8137 71.5214 79.4807 71.5214 74.1358C71.5214 68.7909 75.4328 64.458 80.2576 64.458C85.0825 64.458 88.9938 68.7909 88.9938 74.1358Z" fill="white"/>
<path d="M88.9938 75.5481C88.9938 78.6106 86.7219 81.0932 83.9195 81.0932C81.117 81.0932 78.8452 78.6106 78.8452 75.5481C78.8452 72.4856 81.117 70.0029 83.9195 70.0029C86.7219 70.0029 88.9938 72.4856 88.9938 75.5481Z" fill="#646464"/>
<ellipse cx="67.8596" cy="41.6016" rx="2.19424" ry="4.50133" transform="rotate(32.6663 67.8596 41.6016)" fill="white" fill-opacity="0.3"/>
<ellipse cx="63.3437" cy="48.3191" rx="1.36725" ry="2.12484" transform="rotate(26.8733 63.3437 48.3191)" fill="white" fill-opacity="0.3"/>
</svg>
