<svg width="144" height="144" viewBox="0 0 144 144" fill="none" xmlns="http://www.w3.org/2000/svg">
<g id="profile_sq_y">
<g id="Group 926">
<path id="Ellipse 105" d="M144 72C144 111.765 111.765 144 72 144C32.2355 144 0 111.765 0 72C0 32.2355 32.2355 0 72 0C111.765 0 144 32.2355 144 72Z" fill="#FFF0DC"/>
</g>
<g id="Group 943">
<path id="Rectangle 383" d="M36 47.8209C36 41.2924 41.2924 36 47.8209 36H96.1791C102.708 36 108 41.2924 108 47.8209V96.1791C108 102.708 102.708 108 96.1791 108H47.8209C41.2924 108 36 102.708 36 96.1791V47.8209Z" fill="#FF994E"/>
<path id="Rectangle 363" d="M36 47.4018C36 41.1048 41.1048 36 47.4018 36H94.0457C100.343 36 105.448 41.1048 105.448 47.4018V94.0457C105.448 100.343 100.343 105.448 94.0457 105.448H47.4018C41.1048 105.448 36 100.343 36 94.0457V47.4018Z" fill="#FFB54E"/>
<g id="Group 22">
<path id="Ellipse 55" d="M69.7934 65.937C69.7934 71.7098 65.5225 76.3896 60.2541 76.3896C54.9857 76.3896 50.7148 71.7098 50.7148 65.937C50.7148 60.1642 54.9857 55.4844 60.2541 55.4844C65.5225 55.4844 69.7934 60.1642 69.7934 65.937Z" fill="white"/>
<path id="Ellipse 57" d="M63.4002 67.3573C63.4002 70.6641 60.924 73.3447 57.8694 73.3447C54.8149 73.3447 52.3387 70.6641 52.3387 67.3573C52.3387 64.0505 54.8149 61.3699 57.8694 61.3699C60.924 61.3699 63.4002 64.0505 63.4002 67.3573Z" fill="#646464"/>
<path id="Ellipse 89" d="M90.5973 65.937C90.5973 71.7098 86.3491 76.3896 81.1087 76.3896C75.8684 76.3896 71.6202 71.7098 71.6202 65.937C71.6202 60.1642 75.8684 55.4844 81.1087 55.4844C86.3491 55.4844 90.5973 60.1642 90.5973 65.937Z" fill="white"/>
<path id="Ellipse 90" d="M84.3052 67.3573C84.3052 70.6641 81.829 73.3447 78.7745 73.3447C75.7199 73.3447 73.2437 70.6641 73.2437 67.3573C73.2437 64.0505 75.7199 61.3699 78.7745 61.3699C81.829 61.3699 84.3052 64.0505 84.3052 67.3573Z" fill="#646464"/>
</g>
<ellipse id="Ellipse 144" cx="44.518" cy="41.8754" rx="2.434" ry="5.4171" transform="rotate(56.4095 44.518 41.8754)" fill="white" fill-opacity="0.3"/>
<ellipse id="Ellipse 145" cx="39.007" cy="48.1135" rx="1.51816" ry="1.90376" fill="white" fill-opacity="0.3"/>
</g>
</g>
</svg>
