<svg width="144" height="144" viewBox="0 0 144 144" fill="none" xmlns="http://www.w3.org/2000/svg">
<path d="M144 72C144 111.765 111.765 144 72 144C32.2355 144 0 111.765 0 72C0 32.2355 32.2355 0 72 0C111.765 0 144 32.2355 144 72Z" fill="#FFF0DC"/>
<path d="M112 72C112 94.0914 94.0914 112 72 112C49.9086 112 32 94.0914 32 72C32 49.9086 49.9086 32 72 32C94.0914 32 112 49.9086 112 72Z" fill="#FF994E"/>
<path d="M108.781 70.3903C108.781 91.5927 91.5927 108.781 70.3903 108.781C49.1879 108.781 32 91.5927 32 70.3903C32 49.1879 49.1879 32 70.3903 32C91.5927 32 108.781 49.1879 108.781 70.3903Z" fill="#FFB54E"/>
<path d="M70.3097 70.5517C70.3097 76.5524 65.9136 81.4169 60.4908 81.4169C55.068 81.4169 50.6719 76.5524 50.6719 70.5517C50.6719 64.551 55.068 59.6865 60.4908 59.6865C65.9136 59.6865 70.3097 64.551 70.3097 70.5517Z" fill="white"/>
<path d="M68.7003 72.1606C68.7003 75.5832 66.178 78.3577 63.0665 78.3577C59.955 78.3577 57.4327 75.5832 57.4327 72.1606C57.4327 68.738 59.955 65.9634 63.0665 65.9634C66.178 65.9634 68.7003 68.738 68.7003 72.1606Z" fill="#646464"/>
<path d="M92.0402 70.5512C92.0402 76.5519 87.6442 81.4164 82.2213 81.4164C76.7985 81.4164 72.4024 76.5519 72.4024 70.5512C72.4024 64.5505 76.7985 59.686 82.2213 59.686C87.6442 59.686 92.0402 64.5505 92.0402 70.5512Z" fill="white"/>
<path d="M90.4305 72.1606C90.4305 75.5832 87.9082 78.3577 84.7967 78.3577C81.6852 78.3577 79.1629 75.5832 79.1629 72.1606C79.1629 68.738 81.6852 65.9634 84.7967 65.9634C87.9082 65.9634 90.4305 68.738 90.4305 72.1606Z" fill="#646464"/>
<ellipse cx="51.9447" cy="41.3952" rx="2.25697" ry="6.019" transform="rotate(56.4095 51.9447 41.3952)" fill="white" fill-opacity="0.3"/>
<ellipse cx="44.3333" cy="47.4142" rx="1.68685" ry="2.11528" transform="rotate(42.8825 44.3333 47.4142)" fill="white" fill-opacity="0.3"/>
</svg>
